HIERARCHY
ROOT Hips
{
	OFFSET -3.958830 18.904000 13.208200
	CHANNELS 6 Xposition Yposition Zposition Zrotation Yrotation Xrotation 
	JOINT LHipJoint
	{
		OFFSET 0.000000 0.000000 0.000000
		CHANNELS 3 Zrotation Yrotation Xrotation
		JOINT LeftUpLeg
		{
			OFFSET 1.800000 -1.400000 0.085000
			CHANNELS 3 Zrotation Yrotation Xrotation
			JOINT LeftLeg
			{
				OFFSET 2.215000 -6.000000 0.000000
				CHANNELS 3 Zrotation Yrotation Xrotation
				JOINT LeftFoot
				{
					OFFSET 2.500000 -6.900000 0.000000
					CHANNELS 3 Zrotation Yrotation Xrotation
					JOINT LeftToeBase
					{
						OFFSET 0.200000 -0.500000 1.950000
						CHANNELS 3 Zrotation Yrotation Xrotation
						End Site
						{
							OFFSET 0.000000 0.000000 0.000000
						}
					}
				}
			}
		}
	}
	JOINT RHipJoint
	{
		OFFSET 0.000000 0.000000 0.000000
		CHANNELS 3 Zrotation Yrotation Xrotation
		JOINT RightUpLeg
		{
			OFFSET -1.800000 -1.400000 0.085000
			CHANNELS 3 Zrotation Yrotation Xrotation
			JOINT RightLeg
			{
				OFFSET -2.215000 -6.000000 0.000000
				CHANNELS 3 Zrotation Yrotation Xrotation
				JOINT RightFoot
				{
					OFFSET -2.500000 -6.900000 0.000000
					CHANNELS 3 Zrotation Yrotation Xrotation
					JOINT RightToeBase
					{
						OFFSET -0.200000 -0.500000 1.950000
						CHANNELS 3 Zrotation Yrotation Xrotation
						End Site
						{
							OFFSET 0.000000 0.000000 0.000000
						}
					}
				}
			}
		}
	}
	JOINT LowerBack
	{
		OFFSET 0.000000 0.000000 0.000000
		CHANNELS 3 Zrotation Yrotation Xrotation
		JOINT Spine
		{
			OFFSET -0.087000 1.940000 -0.288900
			CHANNELS 3 Zrotation Yrotation Xrotation
			JOINT Spine1
			{
				OFFSET 0.000000 1.950000 0.060000
				CHANNELS 3 Zrotation Yrotation Xrotation
				JOINT Neck
				{
					OFFSET 0.000000 0.000000 0.000000
					CHANNELS 3 Zrotation Yrotation Xrotation
					JOINT Neck1
					{
						OFFSET 0.000000 1.600000 0.340000
						CHANNELS 3 Zrotation Yrotation Xrotation
						JOINT Head
						{
							OFFSET 0.000000 1.667000 -0.240000
							CHANNELS 3 Zrotation Yrotation Xrotation
							End Site
							{
								OFFSET 0.000000 0.000000 0.000000
							}
						}
					}
				}
				JOINT LeftShoulder
				{
					OFFSET 0.000000 0.000000 0.000000
					CHANNELS 3 Zrotation Yrotation Xrotation
					JOINT LeftArm
					{
						OFFSET 2.700000 1.550000 -0.730000
						CHANNELS 3 Zrotation Yrotation Xrotation
						JOINT LeftForeArm
						{
							OFFSET 5.450000 0.000000 0.000000
							CHANNELS 3 Zrotation Yrotation Xrotation
							JOINT LeftHand
							{
								OFFSET 3.450000 0.000000 0.000000
								CHANNELS 3 Zrotation Yrotation Xrotation
								JOINT LeftHandIndex1
								{
									OFFSET 0.750000 0.000000 0.000000
									CHANNELS 3 Zrotation Yrotation Xrotation
									End Site
									{
										OFFSET 0.000000 0.000000 0.000000
									}
								}
							}
						}
					}
				}
				JOINT RightShoulder
				{
					OFFSET 0.000000 0.000000 0.000000
					CHANNELS 3 Zrotation Yrotation Xrotation
					JOINT RightArm
					{
						OFFSET -2.700000 1.550000 -0.730000
						CHANNELS 3 Zrotation Yrotation Xrotation
						JOINT RightForeArm
						{
							OFFSET -5.450000 0.000000 0.000000
							CHANNELS 3 Zrotation Yrotation Xrotation
							JOINT RightHand
							{
								OFFSET -3.450000 0.000000 0.000000
								CHANNELS 3 Zrotation Yrotation Xrotation
								JOINT RightHandIndex1
								{
									OFFSET -0.750000 0.000000 0.000000
									CHANNELS 3 Zrotation Yrotation Xrotation
									End Site
									{
										OFFSET 0.000000 0.000000 0.000000
									}
								}
							}
						}
					}
				}
			}
		}
	}
}
MOTION
Frames: 8
Frame Time: 0.016667
0.629770 15.620410 -0.660490 -0.384742 5.984368 -2.521028 -15.162626 12.815949 2.941133 4.362643 -4.730917 -16.418221 -9.531256 11.157376 35.494497 -0.165389 7.773831 2.136936 0.511610 -0.149920 0.330070 18.430445 -9.617256 3.994382 -10.710980 6.789627 -40.398611 5.009947 -14.633549 59.797453 -1.401180 -9.741379 1.314925 0.083160 0.504400 0.228720 -3.869584 -2.491710 -8.299729 10.231242 -4.105780 15.671120 -6.622372 -2.040278 -0.770842 2.051752 -4.628440 -6.644986 -10.032969 1.791187 30.972389 -1.434790 -2.112430 -6.621180 -32.553754 -7.622584 -0.014884 -39.527012 -5.670725 -4.983599 -21.098469 -31.566741 3.058874 -3.779709 3.072434 0.674380 0.250960 -0.278290 0.399450 27.947602 9.728416 5.345419 44.177077 -1.348371 -6.524810 12.034398 14.676290 -0.074939 1.826967 -1.332162 -0.409320 0.418930 0.037270 -0.364010 
0.635020 15.603660 -0.676870 -0.538979 5.953349 -3.613213 -15.165217 12.809637 2.941059 4.493351 -4.872197 -16.182212 -9.198602 11.440230 37.056284 -0.114652 8.010262 2.035577 0.525660 -0.143260 0.352210 18.431137 -9.496410 4.147425 -11.334837 7.096578 -41.406530 4.964304 -15.622410 62.898043 -1.579518 -10.321773 1.140655 0.072400 0.455560 0.220590 -3.861093 -2.611999 -8.478512 10.411294 -4.399206 17.501900 -6.828632 -2.147777 -1.375836 2.196795 -4.677681 -6.998371 -10.576693 2.087891 32.901340 -0.934330 -2.149320 -7.532460 -33.381451 -8.209192 0.212502 -38.538855 -4.865324 -5.691445 -21.966407 -33.777033 3.597490 -3.702547 3.094852 0.727910 0.200040 -0.238150 0.388010 28.492947 10.383432 5.682013 43.396946 -1.694998 -6.805866 12.181048 15.526045 0.057964 1.821806 -1.304256 -0.404050 0.415380 0.033130 -0.379460 
0.647650 15.572710 -0.704070 -1.104240 5.724505 -5.735424 -15.156938 12.815876 2.913287 5.110773 -4.979258 -15.475056 -8.714309 11.977667 39.569931 -0.011440 8.409211 1.857814 0.584940 -0.087540 0.417490 18.442582 -9.316573 4.375318 -12.067481 7.717168 -42.739527 4.653676 -17.173717 68.086998 -1.895127 -11.249893 0.870675 0.071580 0.347130 0.218130 -3.877526 -2.784530 -8.717031 11.292917 -4.984563 20.850396 -7.398060 -2.298614 -2.447169 2.464428 -4.932452 -7.560990 -11.848725 2.614353 36.106901 -0.193930 -2.214930 -9.768080 -34.897473 -9.017727 0.479112 -36.751688 -3.652397 -6.861081 -23.591706 -37.982971 4.751762 -3.553849 3.158770 0.812870 0.102870 -0.148010 0.373390 29.441803 11.402062 6.276699 41.897543 -2.473231 -7.390279 12.427055 17.498433 0.316166 1.812359 -1.279293 -0.368780 0.394550 0.000530 -0.401370 
0.656500 15.536910 -0.735410 -1.394896 5.623026 -8.197190 -15.180145 12.845995 2.918281 5.433623 -5.234833 -14.717822 -8.059345 12.585203 42.788461 0.112602 8.921983 1.640992 0.638070 -0.034300 0.477310 18.422771 -9.134879 4.541581 -13.084832 8.063518 -43.690468 4.242178 -18.729973 72.979015 -2.198511 -12.097924 0.633170 0.070330 0.237220 0.208300 -3.806383 -3.039545 -8.919262 11.440974 -5.483881 24.717593 -7.711153 -2.485804 -3.598842 2.727932 -5.237382 -8.287164 -13.464029 3.336027 39.785534 0.863030 -2.346430 -12.623160 -36.143770 -9.850590 0.803456 -35.189240 -2.433499 -8.116333 -25.729802 -43.061154 6.352473 -3.396613 3.218498 0.911720 -0.003170 -0.053670 0.351800 30.247442 12.564734 6.988860 40.561601 -3.483273 -8.216663 12.638443 20.141456 0.648807 1.792133 -1.243179 -0.340930 0.386490 -0.021590 -0.426080 
0.661400 15.494720 -0.760550 -1.553086 5.870687 -10.191177 -15.198161 12.812767 2.955630 5.814063 -5.644764 -14.370071 -7.870470 13.284235 45.671076 0.225314 9.448828 1.434000 0.680480 0.000700 0.529470 18.414909 -9.019042 4.610310 -13.921513 8.026004 -44.280915 3.639170 -19.891147 76.611854 -2.424295 -12.707311 0.473313 0.066520 0.160030 0.213250 -3.766342 -3.152267 -9.046104 11.372956 -5.950929 27.601688 -8.341900 -2.792353 -4.122440 3.106915 -5.068243 -8.870804 -13.862321 3.734598 42.648305 1.513940 -2.151960 -15.030830 -36.679682 -10.608143 1.222819 -33.830353 -1.462586 -9.232037 -28.516033 -48.949009 8.621348 -3.280378 3.284478 0.996290 -0.072800 0.018320 0.335430 30.085617 13.274391 7.483672 40.540098 -4.283337 -9.261225 13.010926 23.450705 1.017030 1.758941 -1.221754 -0.323140 0.378970 -0.035680 -0.453020 
0.671510 15.453670 -0.782070 -1.767738 5.989263 -11.882888 -15.200738 12.762508 2.993965 6.039019 -6.063347 -14.171879 -7.557909 13.818681 48.286244 0.331714 9.909301 1.262855 0.697050 0.013310 0.567710 18.419599 -8.967918 4.634770 -14.574000 7.865583 -44.522307 3.079354 -20.791987 79.318952 -2.586428 -13.154354 0.355383 0.057610 0.104330 0.220160 -3.767476 -3.149379 -9.129248 11.640063 -6.371406 29.969612 -9.223213 -3.011635 -4.395212 3.576869 -4.511108 -9.359027 -13.213623 3.580346 44.874567 1.524530 -1.802120 -16.506080 -37.311505 -11.436436 1.697778 -32.000593 -0.512301 -10.144364 -32.564067 -55.131195 11.996289 -3.183067 3.374225 1.050510 -0.114760 0.070860 0.317440 29.763834 13.807779 7.960218 40.529148 -5.343946 -10.381658 13.978731 27.186805 1.506657 1.728216 -1.221839 -0.312950 0.367670 -0.043850 -0.474870 
0.678070 15.415940 -0.803790 -1.973027 6.006792 -13.160915 -15.194638 12.715862 3.037578 6.489651 -6.364813 -14.058757 -7.812622 14.370474 49.758061 0.429157 10.219235 1.148242 0.706530 0.030350 0.590300 18.427094 -8.968854 4.607783 -14.785230 7.676586 -44.425352 2.365490 -21.170618 81.127604 -2.687919 -13.405876 0.287887 0.046280 0.063090 0.231850 -3.785624 -3.097496 -9.169718 11.924737 -6.796060 31.757900 -10.048880 -3.252278 -4.355147 3.974916 -4.000186 -9.789115 -12.457534 3.311368 46.265334 1.538880 -1.449760 -17.540860 -37.675181 -12.175724 2.198704 -30.699327 -0.000181 -10.846106 -36.836068 -61.086109 15.979479 -3.097929 3.482823 1.072450 -0.142000 0.112410 0.304150 29.299039 14.244820 8.392597 40.570685 -6.423000 -11.546331 15.310896 31.383468 2.151957 1.705566 -1.246038 -0.288960 0.348070 -0.053450 -0.480190 
0.684610 15.385210 -0.812520 -1.838587 5.920877 -13.902954 -15.188524 12.689120 3.087162 6.517617 -6.579906 -13.902145 -8.141947 14.709684 50.406119 0.474641 10.406083 1.089507 0.664200 -0.012440 0.581150 18.426561 -9.039348 4.527150 -14.915726 7.298347 -43.897188 1.579586 -21.116909 82.056002 -2.703499 -13.488876 0.275271 0.021020 0.066950 0.227940 -3.794044 -3.005415 -9.179871 11.760500 -6.941575 32.690591 -10.688591 -3.415041 -3.996901 4.294560 -3.278919 -10.167514 -11.067985 2.717308 46.817616 1.151980 -1.023310 -17.491610 -37.653939 -12.801420 2.770068 -29.803468 0.341003 -11.181841 -42.947360 -67.043942 21.753303 -3.065622 3.569225 1.076310 -0.129440 0.109550 0.278330 28.608271 14.411871 8.747491 40.660078 -7.610934 -12.607754 17.348319 35.461096 3.025779 1.673002 -1.254442 -0.302580 0.353310 -0.028920 -0.493470 
